<svg xmlns="http://www.w3.org/2000/svg" xmlns:xlink="http://www.w3.org/1999/xlink" width="97" height="35" viewBox="0 0 97 35"><defs><path id="u5laa" d="M35.02 30.22c-.47 8.84 6.86 10.1 6.86 10.1-.37-9.68-6.86-10.1-6.86-10.1z"/><path id="u5lab" d="M131.38 50.15c-.04.44-.28.67-.71.67H119.8a4.1 4.1 0 0 0 1.38 2.94c.9.86 2 1.3 3.32 1.3 1.32 0 2.6-.44 3.85-1.32.38-.27.69-.24.91.07l.92 1.41c.32.38.3.73-.07 1.05-1.47 1.27-3.41 1.91-5.81 1.91a7.38 7.38 0 0 1-5.69-2.35 8.2 8.2 0 0 1-2.17-5.79c0-2.24.72-4.15 2.17-5.73a7.32 7.32 0 0 1 5.65-2.37c2.04 0 3.75.67 5.12 2.02a6.85 6.85 0 0 1 2.06 5.11c0 .36-.02.72-.07 1.08zm-4.44-4.33a3.8 3.8 0 0 0-2.74-1.02c-1.2 0-2.17.33-2.92 1a3.83 3.83 0 0 0-1.3 2.53h8.1a3.58 3.58 0 0 0-1.14-2.5zm-13.91 12c-.83.24-1.67.36-2.5.36-1.48 0-2.51-.4-3.1-1.2-.59-.79-.89-1.94-.89-3.44v-8.4h-1.8a.72.72 0 0 1-.53-.22.7.7 0 0 1-.22-.52v-1.38c0-.5.25-.74.75-.74h1.8v-4.34c0-.2.08-.38.23-.52a.72.72 0 0 1 .52-.22h1.94c.2 0 .38.07.51.22.14.14.2.32.2.52v4.34h4.16c.2 0 .38.06.53.2a.7.7 0 0 1 .22.54v1.38c0 .17-.08.34-.22.5a.7.7 0 0 1-.53.24h-4.15v8.27c0 .6.1 1.02.32 1.24.22.23.53.34.94.34.84 0 1.67-.25 2.51-.74.44-.25.74-.14.92.33l.62 1.58c.15.36.03.67-.38.91-.4.25-1.03.5-1.85.74zm-12.03 0h-1.9a.72.72 0 0 1-.53-.23.7.7 0 0 1-.22-.52V43.02c0-.18.07-.35.22-.5a.7.7 0 0 1 .52-.24h1.9c.19 0 .36.08.52.23a.7.7 0 0 1 .24.5v14.06c0 .2-.08.38-.24.52a.74.74 0 0 1-.51.22zm-10.85.36c-1.91 0-3.63-.52-5.18-1.58-.34-.24-.43-.51-.27-.8l.72-1.45c.2-.4.54-.47 1.02-.2a8.14 8.14 0 0 0 3.9 1.14c.67 0 1.18-.14 1.54-.42.36-.28.54-.64.54-1.1 0-.49-.26-.92-.78-1.3s-1.38-.85-2.58-1.38a10.04 10.04 0 0 1-3.17-2.02 3.95 3.95 0 0 1-1.09-2.9c0-1.11.43-2.1 1.3-2.95.86-.85 2.16-1.28 3.9-1.28 1.9 0 3.42.38 4.6 1.14.46.32.57.7.34 1.15l-.54 1.07c-.2.4-.55.5-1.02.3a8.59 8.59 0 0 0-3.37-.77c-.64 0-1.13.14-1.48.4-.35.28-.53.6-.53.98 0 .47.22.88.66 1.21.45.34 1.12.7 2.03 1.08.88.36 1.57.67 2.06.92.49.26 1 .6 1.53 1s.91.86 1.14 1.39c.23.53.34 1.14.34 1.83a4.1 4.1 0 0 1-1.53 3.21 6.01 6.01 0 0 1-4.08 1.33zm-15.28 0c-2.2 0-4.1-.8-5.67-2.42a7.95 7.95 0 0 1-2.36-5.75c0-2.2.79-4.09 2.36-5.68a7.7 7.7 0 0 1 5.67-2.39c2.18 0 4.05.8 5.63 2.39A7.8 7.8 0 0 1 82.86 50c0 2.22-.78 4.14-2.34 5.75a7.59 7.59 0 0 1-5.65 2.42zm3.32-11.65c-.9-.93-2-1.4-3.32-1.4-1.34 0-2.46.47-3.35 1.4-.9.93-1.35 2.1-1.35 3.48 0 1.44.45 2.62 1.35 3.57.9.94 2 1.4 3.35 1.4 1.31 0 2.42-.47 3.32-1.42A4.98 4.98 0 0 0 79.53 50c0-1.39-.45-2.55-1.34-3.48zM59.42 57.78a.68.68 0 0 1-.65.4h-.2a.7.7 0 0 1-.68-.4l-6.8-14.63c-.14-.22-.15-.42-.04-.6.11-.18.32-.27.61-.27h2.08a.7.7 0 0 1 .68.43l4.18 9.52h.07l4.4-9.52c.13-.29.48-.43 1.05-.43h1.53c.3 0 .5.09.6.27.12.18.11.38-.02.6zm-11.13.03h-1.9a.72.72 0 0 1-.53-.22.7.7 0 0 1-.22-.52V43.02c0-.18.07-.35.22-.5a.7.7 0 0 1 .53-.24h1.9c.19 0 .36.08.51.23a.7.7 0 0 1 .24.5v14.06c0 .2-.08.38-.24.52a.74.74 0 0 1-.5.22zm-12.27 7.23h-.26a.7.7 0 0 1-.55-.22.74.74 0 0 1-.2-.52V62.4c0-.2.07-.37.22-.52a.73.73 0 0 1 .53-.22H36a2.5 2.5 0 0 0 2.48-2.48V45.64h-2.73a.74.74 0 0 1-.51-.22.68.68 0 0 1-.24-.52v-1.88a.7.7 0 0 1 .24-.5.72.72 0 0 1 .5-.24h5.4c.2 0 .38.07.53.22a.7.7 0 0 1 .22.52V59.3a5.87 5.87 0 0 1-5.88 5.74z"/></defs><g><g transform="translate(-35 -30)"><use fill="#15bd5f" xlink:href="#u5laa"/></g><g transform="translate(-35 -30)"><use fill="#393545" xlink:href="#u5lab"/></g></g></svg>